<svg width="265" height="70" viewBox="0 0 265 70" fill="none" xmlns="http://www.w3.org/2000/svg">
<g clip-path="url(#clip0_169_2338)">
<path d="M208.75 28.814V33.6594C205.241 30.1384 200.497 27.9741 195.265 27.9741C184.379 27.9741 175.54 37.3742 175.54 48.9709C175.54 60.5676 184.379 69.9677 195.265 69.9677C200.464 69.9677 205.208 67.8034 208.75 64.2824V69.9677H219.409V28.814H208.75ZM208.75 52.9118C207.223 57.5311 202.966 60.8583 197.929 60.8583C191.625 60.8583 186.523 55.6253 186.523 49.1647C186.523 42.7042 191.625 37.4711 197.929 37.4711C202.966 37.4711 207.223 40.7983 208.75 45.4176C209.14 46.5805 209.335 47.8403 209.335 49.1647C209.335 50.4891 209.14 51.7166 208.75 52.9118Z" fill="white"/>
<path d="M265 70H252.521L240.271 53.7194H235.689V70H224.9V22.6765L235.689 15.7314V44.2547L251.189 29.9123H264.285L245.827 45.9345L265 70Z" fill="white"/>
<path d="M168.412 55.9491V46.0645L128.313 46.0645V55.9491L168.412 55.9491Z" fill="white"/>
<path d="M168.437 32.9095V23.0249L128.337 23.0249V32.9095L168.437 32.9095Z" fill="white"/>
<path d="M168.429 9.86999V-0.0146484L128.329 -0.0146484V9.86999L168.429 9.86999Z" fill="white"/>
<path d="M116.171 33.3042C116.171 38.2142 114.157 42.672 110.94 45.9022C107.69 49.1325 103.238 51.103 98.2989 51.103H86.893V70.0001H76.202C76.202 65.4777 77.2094 61.0199 79.1916 56.9498L85.5932 43.641C86.1781 42.3812 87.4779 41.5737 88.8752 41.5737H96.7716C99.0138 41.5737 101.061 40.6692 102.556 39.1833C104.051 37.6973 104.96 35.63 104.96 33.3688C104.928 28.8787 101.094 25.3254 96.5766 25.3254H86.763L85.4957 28.168L76.202 49.1971L69.1505 65.187C68.3706 66.3176 67.4608 67.4158 66.3884 68.288C64.8936 69.5155 63.2689 69.9355 61.3841 69.9678C59.1419 70.0001 57.3872 69.3217 56.0874 67.4804C54.6901 65.5423 53.8452 63.2488 53.0653 61.0199C52.6104 59.7278 51.993 57.9511 51.2781 55.8515C46.6312 42.3166 37.5 15.5377 37.5 15.5377C37.5 15.5377 49.5558 15.3439 50.7256 15.9899C51.8955 16.636 53.5852 16.1837 55.9249 24.1625C57.2572 28.7172 59.1094 34.0794 60.6692 38.3434L63.4313 45.1593L76.202 15.5054H98.2989C108.178 15.5054 116.171 23.4841 116.171 33.3042Z" fill="white"/>
<path d="M49.2305 69.9678C49.2305 69.9678 37.1747 70.1616 36.0049 69.5156C34.8351 68.8695 33.1453 69.3218 30.8056 61.343C29.4733 56.756 27.6211 51.3937 26.0613 47.1298C24.8915 43.9641 23.8516 41.4445 23.2992 40.3462C23.2992 40.3462 17.6775 54.2687 10.2685 56.8852C3.83446 59.211 0 56.8206 0 56.8206C0 56.8206 15.6953 23.3227 16.9626 21.2876C17.905 19.8017 18.9773 18.3481 20.3421 17.2175C21.8369 15.99 23.4617 15.57 25.3464 15.5377C27.5886 15.5054 29.3433 16.1838 30.6432 18.025C32.0405 19.9632 32.8853 22.289 33.6652 24.4856C34.1202 25.81 34.7376 27.5543 35.4525 29.654L36.1349 31.6245C36.3624 32.3028 36.6223 33.0135 36.8823 33.7565L38.507 38.505C43.2189 52.3951 49.2305 69.9678 49.2305 69.9678Z" fill="white"/>
</g>
<defs>
<clipPath id="clip0_169_2338">
<rect width="265" height="70" fill="white"/>
</clipPath>
</defs>
</svg>
