<svg width="32" height="32" viewBox="0 0 32 32" fill="none" xmlns="http://www.w3.org/2000/svg">
<path fill-rule="evenodd" clip-rule="evenodd" d="M4.3335 7.73333C4.3335 5.11918 6.45268 3 9.06683 3H18.7651C19.294 3 19.8134 3.0885 20.3037 3.25703C19.7478 3.32389 19.2502 3.77817 19.2502 4.43791V10.2296C19.2502 10.8852 19.7816 11.4167 20.4372 11.4167H26.2289C26.8238 11.4167 27.2517 11.012 27.379 10.5249C27.5678 11.0411 27.6668 11.5907 27.6668 12.1502V23.12C27.6668 25.7342 25.5476 27.8533 22.9335 27.8533H9.06683C6.45268 27.8533 4.3335 25.7341 4.3335 23.12V7.73333ZM22.9611 5.2831L21.6892 4.01115C21.8723 4.15501 22.0456 4.31307 22.2075 4.48458L22.9611 5.2831ZM20.7502 5.19348V9.91667H25.4733L20.7502 5.19348ZM19.2209 16.5055C19.5001 16.1995 19.4783 15.7251 19.1723 15.4459C18.8663 15.1668 18.3919 15.1885 18.1128 15.4945L15.0403 18.8624L13.9072 17.5169C13.6404 17.2001 13.1672 17.1595 12.8504 17.4263C12.5336 17.6931 12.493 18.1663 12.7598 18.4831L14.444 20.4831C14.5832 20.6484 14.7868 20.7456 15.0028 20.7499C15.2188 20.7541 15.4262 20.6651 15.5718 20.5055L19.2209 16.5055Z" fill="#2C2C30"/>
</svg>
