<svg width="922" height="510" viewBox="0 0 922 510" fill="none" xmlns="http://www.w3.org/2000/svg">
<path opacity="0.3" d="M98.6835 505.941C98.6835 505.941 -39.373 219.842 80.9097 104.799C247.752 -54.7768 352.811 150.105 444.115 115.12C491.834 96.8354 565.595 48.7076 654.581 10.3214C758.558 -34.5206 1027.06 71.3992 877.836 239.247C735.258 399.635 1011.14 405.974 851.716 508.454L98.6835 505.941Z" fill="#A9D2D8"/>
<path d="M247.93 103.995H254.692V93.751H247.93V103.995Z" fill="#2B478B"/>
<path d="M259.522 103.995H266.283V93.751H259.522V103.995Z" fill="#2B478B"/>
<path d="M271.113 103.995H277.875V93.751H271.113V103.995Z" fill="#2B478B"/>
<path d="M282.705 103.995H289.467V93.751H282.705V103.995Z" fill="#2B478B"/>
<path d="M294.297 103.995H301.058V93.751H294.297V103.995Z" fill="#2B478B"/>
<path d="M305.888 103.995H312.65V93.751H305.888V103.995Z" fill="#2B478B"/>
<path d="M317.48 103.995H324.242V93.751H317.48V103.995Z" fill="#2B478B"/>
<path d="M329.071 103.995H335.833V93.751H329.071V103.995Z" fill="#2B478B"/>
<path d="M340.663 103.995H347.425V93.751H340.663V103.995Z" fill="#2B478B"/>
<path d="M352.255 103.995H359.017V93.751H352.255V103.995Z" fill="#2B478B"/>
<path d="M408.335 113.806H198.565V506.443H408.335V113.806Z" fill="#77A4E5"/>
<path d="M398.598 124.63H208.341V495.04H398.598V124.63Z" fill="#9FC1F4"/>
<path d="M398.598 135.183H308.299V483.597H398.598V135.183Z" fill="#BDD8FF"/>
<path d="M298.33 136.652H208.031V485.066H298.33V136.652Z" fill="#BDD8FF"/>
<path d="M439.13 476.601L441.874 479.345C441.874 479.345 427.655 479.809 403.544 478.224C395.159 477.683 385.538 476.91 374.913 475.789C359.109 474.088 341.026 471.653 321.282 468.096C314.134 466.82 306.792 465.39 299.219 463.766C296.514 463.187 293.848 462.607 291.221 462.027C277.234 458.896 264.135 455.533 252.08 452.092C242.497 449.386 233.61 446.603 225.38 443.897C209.848 438.794 196.904 433.885 186.935 429.864C172.291 423.95 164.215 419.93 164.215 419.93L170.706 416.335L168.736 411.271L173.372 410.033L173.527 403.732L178.589 405.82C178.589 405.82 187.167 410.111 203.356 416.335C213.364 420.2 226.308 424.8 241.918 429.594C249.723 431.991 258.185 434.426 267.265 436.861C280.054 440.263 294.08 443.626 309.304 446.719C318.23 448.536 327.619 450.314 337.356 451.937C353.584 454.643 370.933 457.04 389.286 458.934C398.135 459.823 407.215 460.635 416.565 461.254C424.95 461.834 433.489 462.298 442.222 462.645L439.014 466.898L441.912 467.864L440.096 469.681L442.647 473.044L439.13 476.601Z" fill="#FFA412"/>
<path d="M416.604 461.254L403.544 478.224C395.159 477.683 385.538 476.91 374.913 475.789L389.325 458.935C398.173 459.824 407.253 460.635 416.604 461.254Z" fill="#B64C41"/>
<path d="M337.394 451.937L321.282 468.057C314.134 466.782 306.792 465.351 299.219 463.728C296.514 463.148 293.848 462.568 291.221 461.988L309.304 446.68C318.307 448.574 327.657 450.314 337.394 451.937Z" fill="#B64C41"/>
<path d="M267.304 436.861L252.119 452.092C242.536 449.386 233.649 446.603 225.419 443.897C229.36 440.34 235.852 434.735 241.957 429.594C249.723 432.029 258.185 434.464 267.304 436.861Z" fill="#B64C41"/>
<path d="M203.395 416.373L186.973 429.903C172.329 423.989 164.254 419.968 164.254 419.968L170.745 416.373L168.774 411.309L173.411 410.072L173.566 403.771L178.627 405.858C178.627 405.858 187.205 410.149 203.395 416.373Z" fill="#B64C41"/>
<path d="M388.011 94.4002L391.914 95.5213C391.914 95.5213 381.79 103.562 363.012 115.082C356.482 119.102 348.87 123.509 340.292 128.148C327.541 135.067 312.588 142.451 295.626 149.68C289.482 152.308 283.107 154.898 276.461 157.45C274.104 158.377 271.747 159.228 269.39 160.117C256.948 164.678 245.009 168.505 233.804 171.753C224.917 174.304 216.455 176.507 208.572 178.363C193.658 181.881 180.753 184.239 170.668 185.785C155.792 188.066 147.098 188.607 147.098 188.607L149.378 181.726L144.432 178.015L146.982 174.343L142.732 168.312L147.91 167.578C147.91 167.578 157.183 167.036 173.373 164.215C183.38 162.475 196.054 159.885 210.814 156.019C218.194 154.086 226.076 151.844 234.422 149.254C246.168 145.582 258.764 141.214 272.095 135.995C279.938 132.902 288.014 129.539 296.283 125.867C310.077 119.72 324.45 112.646 339.21 104.567C346.32 100.663 353.545 96.5263 360.848 92.1195C367.378 88.1765 373.985 84.0015 380.631 79.6333L381.211 85.3545L383.993 84.6974L383.915 87.4033L388.127 89.2202L388.011 94.4002Z" fill="#FFA412"/>
<path d="M360.887 92.0034L363.012 115.043C356.482 119.063 348.87 123.47 340.292 128.109L339.249 104.451C346.359 100.547 353.584 96.4103 360.887 92.0034Z" fill="#B64C41"/>
<path d="M296.283 125.79L295.626 149.679C289.482 152.308 283.107 154.898 276.461 157.45C274.104 158.377 271.747 159.228 269.39 160.117L272.095 135.918C279.939 132.864 288.014 129.462 296.283 125.79Z" fill="#B64C41"/>
<path d="M234.422 149.216L233.804 171.753C224.917 174.304 216.455 176.508 208.573 178.363C208.998 172.874 209.925 164.099 210.814 155.981C218.155 154.048 226.076 151.806 234.422 149.216Z" fill="#B64C41"/>
<path d="M173.334 164.176L170.629 185.785C155.753 188.066 147.06 188.607 147.06 188.607L149.339 181.726L144.393 178.015L146.944 174.343L142.693 168.312L147.871 167.578C147.871 167.539 157.144 166.998 173.334 164.176Z" fill="#B64C41"/>
<path d="M867.867 117.246H649.249V504.472H867.867V117.246Z" fill="#BDD8FF"/>
<path d="M795.69 117.246H652.803V504.472H795.69V117.246Z" fill="#AFCDFB"/>
<path opacity="0.2" d="M544.808 76.0381L389.17 508.879H549.096L544.808 76.0381Z" fill="#599DAD"/>
<path d="M554.197 76.0381V506.444H649.248V113.033L554.197 76.0381Z" fill="#9FC1F4"/>
<path d="M554.197 76.0381H544.808V506.444H554.197V76.0381Z" fill="#77A4E5"/>
<path d="M649.249 113.574V506.443H867.867V113.574H649.249ZM859.019 497.166H658.097V122.851H859.019V497.166Z" fill="#77A4E5"/>
<path d="M93.2356 445.675C93.2356 445.675 102.934 434.348 93.8538 427.158C93.8538 427.158 87.2079 423.138 81.7598 423.447C81.7598 423.447 89.449 436.358 86.9761 437.634C84.5032 438.91 79.4415 422.635 79.4415 422.635C79.4415 422.635 64.2951 421.166 59.4266 423.524C59.4266 423.524 72.3706 434.116 69.6272 434.735C66.8839 435.353 52.9353 424.955 52.9353 424.955C52.9353 424.955 38.8321 427.351 39.6049 435.972C40.339 444.592 45.2075 447.221 47.3326 446.989C49.4578 446.757 61.9381 442.002 62.2086 443.742C62.4791 445.481 54.9831 451.203 49.6896 451.473C49.6896 451.473 59.6198 462.452 66.227 459.282C72.8343 456.112 73.3752 451.087 77.5096 449.231C81.6439 447.337 85.1214 447.337 83.4213 449.27C81.7212 451.203 74.2639 453.058 71.9069 457.233C69.55 461.408 67.4248 464.191 74.2639 463.186C81.103 462.142 92.1923 457.156 92.6946 451.435C93.2356 445.675 93.2356 445.675 93.2356 445.675Z" fill="#77A4E5"/>
<path d="M46.4824 436.204C46.4824 436.204 84.7735 434.735 93.1968 445.674C93.1968 445.674 95.0514 451.28 100.809 456.382L101.697 458.818C101.697 458.818 95.0514 451.821 92.6945 451.396C92.7331 451.396 96.4424 437.827 46.4824 436.204Z" fill="#77A4E5"/>
<path d="M100.847 456.383C100.847 456.383 109.077 462.452 109.618 473.314L108.111 473.43C108.111 473.43 105.484 462.181 100.731 457.813C96.0175 453.445 100.847 456.383 100.847 456.383Z" fill="#77A4E5"/>
<path d="M127.16 431.449C127.16 431.449 111.705 422.79 118.93 411.038C118.93 411.038 124.688 403.81 130.87 401.993C130.87 401.993 127.585 419.504 130.87 419.93C134.154 420.355 133.149 400.137 133.149 400.137C133.149 400.137 149.416 392.29 155.792 392.908C155.792 392.908 145.707 409.995 148.991 409.608C152.276 409.183 163.597 391.903 163.597 391.903C163.597 391.903 180.289 388.811 182.955 398.707C185.621 408.603 181.293 413.551 178.821 414.17C176.348 414.788 160.506 414.595 160.892 416.644C161.317 418.693 172.02 422.017 177.971 420.161C177.971 420.161 171.363 436.436 162.747 435.624C154.092 434.812 151.426 429.439 146.055 429.014C140.684 428.589 136.781 430.058 139.448 431.488C142.114 432.918 151.194 431.952 155.521 435.624C159.849 439.297 163.365 441.577 155.328 443.201C147.291 444.863 132.879 443.819 129.981 437.634C127.16 431.449 127.16 431.449 127.16 431.449Z" fill="#9FC1F4"/>
<path d="M175.343 401.761C175.343 401.761 132.106 415.754 127.16 431.411C127.16 431.411 127.353 438.407 123.026 446.448V449.541C123.026 449.541 127.547 439.026 130.02 437.596C130.058 437.596 120.36 424.027 175.343 401.761Z" fill="#77A4E5"/>
<path d="M123.065 446.487C123.065 446.487 116.38 456.615 120.205 468.947L121.905 468.483C121.905 468.483 120.244 454.914 123.721 448.072C127.199 441.23 123.065 446.487 123.065 446.487Z" fill="#77A4E5"/>
<path d="M102.586 419.504C102.586 419.504 122.949 408.1 113.444 392.638C113.444 392.638 105.832 383.128 97.7176 380.693C97.7176 380.693 102.045 403.771 97.7176 404.312C93.39 404.853 94.7424 378.257 94.7424 378.257C94.7424 378.257 73.2978 367.936 64.8746 368.748C64.8746 368.748 78.1663 391.285 73.8388 390.743C69.5112 390.202 54.558 367.395 54.558 367.395C54.558 367.395 32.5725 363.336 29.0564 376.363C25.5402 389.39 31.2201 395.923 34.4658 396.735C37.7115 397.547 58.6151 397.276 58.0741 399.982C57.5332 402.688 43.43 407.057 35.5477 404.583C35.5477 404.583 44.2414 426.037 55.6399 424.955C67.0384 423.872 70.5545 416.798 77.6254 416.257C84.6963 415.716 89.8353 417.61 86.3191 419.504C82.803 421.398 70.8636 420.123 65.1451 424.993C59.4265 429.825 54.8285 432.841 65.4155 435.006C76.0026 437.17 95.0129 435.817 98.7995 427.661C102.586 419.504 102.586 419.504 102.586 419.504Z" fill="#9FC1F4"/>
<path d="M39.1025 380.383C39.1025 380.383 96.0948 398.861 102.625 419.504C102.625 419.504 102.354 428.743 108.073 439.335V443.394C108.073 443.394 102.084 429.555 98.8382 427.661C98.7995 427.661 111.55 409.724 39.1025 380.383Z" fill="#77A4E5"/>
<path d="M108.034 439.335C108.034 439.335 116.844 452.672 111.821 468.946L109.541 468.328C109.541 468.328 111.743 450.43 107.145 441.422C102.547 432.415 108.034 439.335 108.034 439.335Z" fill="#77A4E5"/>
<path d="M63.4062 464.308C63.4062 486.342 81.2574 504.202 103.282 504.202C105.986 504.202 108.614 503.931 111.125 503.428C129.401 499.795 143.157 483.636 143.157 464.308H63.4062Z" fill="#77A4E5"/>
<path d="M79.1323 464.308C79.1323 483.636 92.8877 499.756 111.125 503.428C129.401 499.795 143.157 483.636 143.157 464.308H79.1323Z" fill="#9FC1F4"/>
<path d="M62.8652 506.211H143.736C143.736 504.858 143.195 503.621 142.307 502.732C141.418 501.843 140.182 501.302 138.829 501.302H67.7724C65.0676 501.302 62.8652 503.505 62.8652 506.211Z" fill="#77A4E5"/>
<path d="M113.366 501.302H107.957C122.601 495.388 128.397 481.046 128.397 464.308H138.289C138.289 481.046 127.972 495.388 113.366 501.302Z" fill="#BDD8FF"/>
<path d="M100.731 506.211H143.736C143.736 504.858 143.196 503.621 142.307 502.732C141.418 501.843 140.182 501.302 138.829 501.302H104.132C101.388 501.302 100.731 503.505 100.731 506.211Z" fill="#9FC1F4"/>
<path d="M63.0972 465.505H143.852C144.2 465.505 144.471 465.235 144.471 464.887C144.471 464.539 144.2 464.269 143.852 464.269H63.0972C62.7495 464.269 62.479 464.539 62.479 464.887C62.5176 465.235 62.7881 465.505 63.0972 465.505Z" fill="#77A4E5"/>
<path d="M162.515 366.931H187.862C190.103 366.931 191.919 365.114 191.919 362.872V316.716C191.919 314.474 190.103 312.657 187.862 312.657H162.515C160.274 312.657 158.458 314.474 158.458 316.716V362.833C158.458 365.114 160.274 366.931 162.515 366.931Z" fill="#77A4E5"/>
<path d="M175.189 324.408L182.105 336.392H168.272L175.189 324.408Z" fill="#2B478B"/>
<path d="M175.189 355.72L182.105 343.737H168.272L175.189 355.72Z" fill="#2B478B"/>
<path d="M347.209 247.249C347.402 247.249 347.556 247.172 347.711 247.056C348.02 246.785 348.059 246.283 347.788 245.974L304.049 195.333C303.894 195.178 303.701 195.062 303.469 195.062C303.238 195.062 303.044 195.14 302.89 195.294L265.874 233.951C265.565 234.261 265.603 234.763 265.912 235.034C266.222 235.343 266.724 235.304 266.994 234.995L303.431 196.957L346.629 246.94C346.784 247.133 346.977 247.249 347.209 247.249Z" fill="#2B478B"/>
<path d="M303.315 200.088C304.809 200.088 306.02 198.876 306.02 197.382C306.02 195.887 304.809 194.676 303.315 194.676C301.821 194.676 300.61 195.887 300.61 197.382C300.61 198.876 301.821 200.088 303.315 200.088Z" fill="#B64C41"/>
<path d="M257.231 261.797L343.901 277.573L349.697 245.704L263.027 229.927L257.231 261.797Z" fill="#B64C41"/>
<path d="M273.563 252.197C273.602 252.042 273.718 251.888 273.834 251.849C273.949 251.772 274.104 251.772 274.22 251.772L275.881 252.004C276.036 252.042 276.152 252.081 276.268 252.236C276.384 252.352 276.384 252.506 276.345 252.661C276.229 253.202 275.997 253.743 275.688 254.285C275.379 254.826 274.915 255.251 274.374 255.638C273.834 256.024 273.138 256.295 272.365 256.449C271.554 256.604 270.627 256.643 269.583 256.449C268.656 256.295 267.845 256.024 267.149 255.638C266.454 255.251 265.913 254.748 265.488 254.207C265.063 253.627 264.753 252.97 264.599 252.236C264.406 251.501 264.367 250.728 264.444 249.878C264.483 249.375 264.56 248.795 264.676 248.138C264.753 247.52 264.869 246.94 264.985 246.437C265.178 245.625 265.449 244.891 265.835 244.234C266.222 243.577 266.685 243.035 267.265 242.61C267.845 242.185 268.501 241.876 269.274 241.721C270.047 241.566 270.897 241.528 271.824 241.682C272.906 241.837 273.756 242.108 274.49 242.533C275.186 242.919 275.765 243.383 276.19 243.925C276.616 244.466 276.886 245.007 277.041 245.625C277.195 246.244 277.234 246.785 277.195 247.365C277.195 247.52 277.118 247.674 276.963 247.752C276.847 247.829 276.693 247.868 276.538 247.829L274.877 247.558C274.722 247.52 274.606 247.481 274.49 247.365C274.374 247.249 274.336 247.094 274.336 246.94C274.336 246.669 274.297 246.399 274.181 246.089C274.065 245.819 273.911 245.548 273.679 245.316C273.447 245.084 273.138 244.852 272.79 244.659C272.404 244.466 271.979 244.35 271.438 244.272C270.897 244.195 270.433 244.195 270.008 244.311C269.583 244.427 269.236 244.582 268.926 244.814C268.617 245.046 268.347 245.355 268.154 245.703C267.96 246.051 267.806 246.437 267.729 246.862C267.613 247.365 267.535 247.945 267.419 248.563C267.342 249.182 267.265 249.762 267.188 250.303C267.149 250.728 267.188 251.153 267.265 251.54C267.342 251.927 267.497 252.274 267.729 252.622C267.96 252.932 268.231 253.202 268.617 253.434C269.004 253.666 269.429 253.821 269.97 253.898C270.511 253.975 270.974 253.975 271.399 253.898C271.824 253.821 272.172 253.705 272.481 253.55C272.79 253.395 273.022 253.202 273.215 252.932C273.37 252.7 273.486 252.468 273.563 252.197Z" fill="white"/>
<path d="M287.975 256.41C288.13 256.449 288.246 256.526 288.323 256.642C288.4 256.758 288.439 256.913 288.439 257.067L288.207 258.536C288.168 258.691 288.091 258.807 287.975 258.884C287.859 258.962 287.705 259 287.55 259L278.586 257.647C278.431 257.609 278.316 257.57 278.238 257.415C278.161 257.299 278.122 257.145 278.122 256.99L280.132 243.77C280.17 243.615 280.247 243.499 280.363 243.422C280.479 243.344 280.634 243.306 280.788 243.306L282.45 243.538C282.604 243.576 282.72 243.654 282.798 243.77C282.875 243.885 282.914 244.04 282.914 244.195L281.213 255.405L287.975 256.41Z" fill="white"/>
<path d="M290.757 250.264C290.912 249.491 291.182 248.795 291.53 248.177C291.878 247.558 292.342 247.017 292.921 246.592C293.501 246.167 294.158 245.858 294.93 245.703C295.703 245.51 296.592 245.51 297.597 245.664C298.601 245.819 299.451 246.089 300.108 246.476C300.765 246.863 301.344 247.365 301.769 247.945C302.195 248.525 302.465 249.182 302.62 249.878C302.774 250.574 302.813 251.347 302.735 252.12C302.697 252.391 302.658 252.661 302.62 252.97C302.581 253.28 302.542 253.628 302.465 253.937C302.426 254.285 302.349 254.594 302.31 254.903C302.272 255.213 302.195 255.483 302.156 255.754C302.001 256.527 301.731 257.223 301.383 257.841C301.035 258.46 300.572 259.001 299.992 259.426C299.413 259.851 298.756 260.161 297.983 260.315C297.21 260.47 296.321 260.508 295.317 260.354C294.312 260.199 293.462 259.929 292.767 259.542C292.071 259.156 291.53 258.653 291.105 258.073C290.68 257.493 290.41 256.875 290.255 256.14C290.101 255.444 290.062 254.671 290.139 253.898C290.178 253.628 290.216 253.357 290.255 253.048C290.294 252.738 290.332 252.391 290.41 252.081C290.448 251.733 290.526 251.424 290.564 251.115C290.642 250.806 290.68 250.535 290.757 250.264ZM299.992 251.772C300.069 250.767 299.876 249.994 299.374 249.337C298.872 248.718 298.137 248.332 297.21 248.177C296.244 248.022 295.433 248.177 294.776 248.641C294.119 249.105 293.694 249.801 293.462 250.767C293.346 251.27 293.269 251.849 293.153 252.507C293.076 253.125 292.998 253.705 292.921 254.246C292.844 255.251 293.037 256.024 293.539 256.643C294.042 257.261 294.776 257.648 295.703 257.803C296.669 257.957 297.481 257.803 298.137 257.339C298.794 256.913 299.219 256.179 299.413 255.213C299.528 254.71 299.606 254.13 299.722 253.473C299.876 252.854 299.953 252.275 299.992 251.772Z" fill="white"/>
<path d="M311.197 247.713C312.125 247.868 312.897 248.1 313.554 248.447C314.211 248.795 314.752 249.182 315.138 249.646C315.563 250.071 315.834 250.535 315.988 251.037C316.143 251.501 316.22 251.965 316.182 252.352C316.182 252.506 316.104 252.661 315.95 252.738C315.834 252.816 315.679 252.854 315.525 252.816L314.095 252.584C313.863 252.545 313.709 252.468 313.593 252.39C313.477 252.274 313.4 252.158 313.322 251.965C313.168 251.579 312.897 251.269 312.511 250.921C312.125 250.612 311.545 250.38 310.734 250.264C310.386 250.226 310.038 250.187 309.69 250.226C309.343 250.264 309.072 250.303 308.802 250.419C308.531 250.535 308.338 250.69 308.145 250.844C307.99 251.037 307.874 251.231 307.836 251.501C307.797 251.811 307.797 252.081 307.913 252.313C308.029 252.545 308.222 252.738 308.493 252.932C308.763 253.125 309.149 253.318 309.652 253.511C310.154 253.705 310.734 253.937 311.468 254.207C312.24 254.517 312.936 254.826 313.477 255.135C314.018 255.483 314.482 255.831 314.791 256.217C315.1 256.604 315.332 257.029 315.448 257.493C315.563 257.957 315.563 258.46 315.486 259.039C315.409 259.658 315.177 260.199 314.829 260.702C314.482 261.204 314.018 261.591 313.477 261.861C312.897 262.171 312.24 262.364 311.468 262.48C310.695 262.596 309.845 262.557 308.956 262.441C308.183 262.325 307.488 262.132 306.792 261.823C306.136 261.552 305.556 261.166 305.054 260.74C304.551 260.315 304.204 259.813 303.933 259.271C303.663 258.73 303.585 258.15 303.624 257.57C303.624 257.416 303.701 257.261 303.856 257.184C303.972 257.107 304.126 257.068 304.281 257.107L305.711 257.339C305.942 257.377 306.097 257.454 306.213 257.532C306.329 257.648 306.406 257.764 306.445 257.957C306.522 258.15 306.599 258.344 306.715 258.537C306.831 258.73 306.986 258.923 307.179 259.078C307.372 259.233 307.681 259.387 307.99 259.542C308.338 259.697 308.763 259.774 309.265 259.89C309.69 259.967 310.077 259.967 310.463 259.967C310.849 259.967 311.197 259.929 311.506 259.813C311.815 259.697 312.086 259.581 312.279 259.387C312.472 259.194 312.627 258.962 312.666 258.653C312.704 258.344 312.666 258.112 312.472 257.88C312.318 257.648 312.047 257.454 311.661 257.261C311.275 257.068 310.849 256.875 310.27 256.643C309.729 256.449 309.072 256.179 308.377 255.87C307.72 255.599 307.14 255.328 306.677 255.019C306.213 254.71 305.826 254.362 305.517 254.014C305.247 253.627 305.054 253.202 304.938 252.738C304.822 252.274 304.822 251.733 304.938 251.115C305.015 250.496 305.247 249.955 305.595 249.491C305.942 249.027 306.406 248.641 306.908 248.331C307.449 248.022 308.068 247.829 308.763 247.713C309.729 247.597 310.424 247.597 311.197 247.713Z" fill="white"/>
<path d="M327.232 262.364C327.387 262.403 327.503 262.48 327.58 262.596C327.657 262.712 327.696 262.867 327.696 263.021L327.464 264.49C327.425 264.645 327.348 264.761 327.232 264.838C327.116 264.915 326.962 264.954 326.807 264.954L317.843 263.601C317.688 263.562 317.573 263.524 317.495 263.369C317.418 263.253 317.379 263.098 317.379 262.944L319.389 249.723C319.427 249.569 319.505 249.453 319.62 249.375C319.736 249.298 319.891 249.259 320.045 249.259L328.855 250.612C329.01 250.651 329.126 250.728 329.203 250.844C329.28 250.96 329.319 251.115 329.319 251.269L329.087 252.738C329.048 252.893 328.971 253.009 328.855 253.086C328.739 253.164 328.585 253.202 328.43 253.202L321.823 252.197L321.321 255.444L327.464 256.372C327.619 256.411 327.735 256.488 327.812 256.604C327.889 256.72 327.928 256.875 327.928 257.029L327.696 258.498C327.657 258.653 327.58 258.769 327.464 258.846C327.348 258.923 327.194 258.962 327.039 258.962L320.896 258.034L320.393 261.436L327.232 262.364Z" fill="white"/>
<path d="M337.704 251.926C338.708 252.081 339.558 252.352 340.254 252.738C340.949 253.125 341.529 253.589 341.954 254.169C342.379 254.748 342.649 255.367 342.842 256.14C342.997 256.875 343.036 257.686 342.958 258.537C342.842 259.542 342.688 260.547 342.495 261.552C342.302 262.402 342.031 263.137 341.645 263.794C341.258 264.451 340.795 264.992 340.254 265.418C339.674 265.843 339.017 266.114 338.244 266.268C337.472 266.423 336.583 266.423 335.617 266.268L330.478 265.495C330.324 265.456 330.208 265.418 330.13 265.263C330.053 265.147 330.014 264.992 330.014 264.838L332.024 251.617C332.062 251.463 332.101 251.347 332.255 251.269C332.371 251.192 332.526 251.153 332.68 251.153L337.704 251.926ZM340.215 258.073C340.254 257.648 340.215 257.222 340.138 256.836C340.06 256.449 339.906 256.063 339.635 255.753C339.404 255.444 339.095 255.174 338.669 254.942C338.283 254.71 337.781 254.555 337.201 254.478L334.458 254.053L333.067 263.253L335.926 263.678C336.467 263.755 336.969 263.755 337.394 263.678C337.819 263.601 338.206 263.408 338.515 263.176C338.824 262.944 339.094 262.634 339.288 262.286C339.481 261.939 339.635 261.513 339.713 261.088C339.945 260.122 340.099 259.117 340.215 258.073Z" fill="white"/>
<path d="M569.189 315.363C569.189 319.847 567.643 323.481 565.711 323.481C563.779 323.481 562.234 319.847 562.234 315.363C562.234 310.878 563.779 307.245 565.711 307.245C567.643 307.245 569.189 310.878 569.189 315.363Z" fill="#4A75CB"/>
<path d="M575.757 315.363C575.757 322.824 573.169 328.854 569.962 328.854C566.755 328.854 564.166 322.824 564.166 315.363C564.166 307.902 566.755 301.872 569.962 301.872C573.169 301.872 575.757 307.902 575.757 315.363Z" fill="#77A4E5"/>
<path d="M581.244 301.214C584.644 301.988 600.061 302.181 610.88 299.745C613.121 299.243 615.207 298.624 616.908 297.851C618.955 296.962 620.462 295.88 621.274 294.565C622.51 292.517 624.713 285.558 627.379 276.397C634.604 251.192 644.805 209.598 644.805 209.598C644.805 209.598 624.365 213.773 619.999 217.329C615.671 220.885 611.846 277.479 607.789 278.987C607.171 279.219 606.166 279.683 604.814 280.34C604.736 280.378 604.698 280.417 604.62 280.417C603.848 280.804 602.92 281.267 601.993 281.77C593.531 286.1 579.582 293.947 578.114 295.686C576.182 298.006 576.298 300.055 581.244 301.214Z" fill="#FFA412"/>
<path d="M620.501 241.837C620.501 240.871 620.578 239.905 620.772 238.938C623.399 224.442 644.341 209.636 644.766 209.636V209.945C644.766 212.149 648.244 216.247 653.615 216.594C659.99 217.02 667.834 213.386 667.834 209.714C667.872 209.714 671.427 210.177 672.625 210.332C677.725 210.912 687.926 213.657 692.292 216.981C696.426 220.112 690.592 239.905 686.96 253.937C685.414 259.852 684.294 264.761 684.487 266.926C684.564 267.969 685.53 282.35 686.38 295.377C687.076 306.124 687.733 315.904 687.733 316.522C687.771 317.759 681.705 322.012 671.543 325.22C669.07 325.993 666.404 326.728 663.467 327.308C658.251 328.39 652.34 329.086 645.925 329.047C643.839 329.047 641.83 328.931 639.936 328.738C625.408 327.308 620.424 310.724 620.501 241.837Z" fill="#FFA412"/>
<path d="M667.872 209.52C667.988 203.877 667.911 197.189 667.138 191.506L644.689 195.179C644.689 195.179 644.65 202.021 644.766 209.636C644.766 209.636 644.148 216.672 652.842 217.716C661.536 218.759 668.104 214.971 667.872 209.52Z" fill="#D9935C"/>
<path d="M649.094 506.792C651.914 505.052 650.253 492.179 650.253 492.179C650.253 492.179 637.038 481.665 635.261 489.783C633.484 497.862 622.781 501.534 616.714 502.539C612.503 503.235 610.957 505.4 610.571 506.792H649.094Z" fill="#233862"/>
<path d="M669.65 285.404C669.65 306.935 680.082 301.137 686.38 295.3C685.53 282.272 684.951 236.193 684.951 236.193C684.951 236.193 669.65 254.594 669.65 285.404Z" fill="#E27F2B"/>
<path d="M601.954 281.809C602.379 284.824 607.132 293.638 610.88 299.746C613.121 299.243 615.207 298.625 616.908 297.851C618.955 296.962 620.462 295.88 621.274 294.566C622.51 292.517 624.713 285.559 627.379 276.397C625.447 265.148 623.592 254.014 623.592 254.014L623.013 246.554C623.013 247.134 614.28 279.876 610.339 280.649C607.943 281.113 606.282 280.533 604.852 280.34C604.775 280.378 604.736 280.417 604.659 280.417C603.809 280.881 602.92 281.345 601.954 281.809Z" fill="#E27F2B"/>
<path d="M689.587 506.792C692.408 505.052 690.747 492.179 690.747 492.179C690.747 492.179 677.532 481.665 675.755 489.783C673.977 497.862 663.274 501.534 657.208 502.539C652.996 503.235 651.489 505.4 651.064 506.792H689.587Z" fill="#233862"/>
<path d="M669.997 185.012C669.997 185.012 684.989 161.393 656.203 159.808C656.203 159.808 645.423 161.083 642.989 158.648C642.989 158.648 634.604 171.366 642.448 185.012C650.253 198.658 669.997 185.012 669.997 185.012Z" fill="#233862"/>
<path d="M645.346 197.343C647.51 199.044 653.924 200.745 655.778 200.977C655.778 200.977 665.245 198.851 666.984 197.807C669.65 196.184 669.495 192.898 669.611 188.375C669.766 183.002 670.307 178.75 669.727 175.657C669.032 171.946 666.675 169.82 660.067 169.24C647.973 168.196 642.912 171.211 642.718 175.27C642.68 176.353 642.603 177.397 642.564 178.402C642.062 191.042 643.066 195.565 645.346 197.343Z" fill="#D9935C"/>
<path d="M642.448 182.538C642.564 189.883 644.535 194.212 645.964 194.754C647.626 195.372 649.558 195.913 651.567 196.261C652.262 196.339 652.919 196.3 652.88 195.913C652.842 194.754 651.296 193.323 652.455 192.318C653.653 191.236 660.145 190.888 660.647 193.246C660.917 194.406 658.831 196.416 660.261 196.455C660.686 196.377 661.111 196.3 661.536 196.184C663.893 195.565 665.747 194.444 666.52 193.981C669.186 192.357 669.032 189.883 669.611 185.36C669.997 182.422 669.997 184.007 669.611 188.375C669.225 192.898 669.997 195.836 666.984 197.808C665.322 198.929 655.624 203.258 655.624 203.258C655.778 200.939 647.51 199.045 645.346 197.344C643.337 195.759 642.332 192.086 642.448 182.538Z" fill="#233862"/>
<path d="M687.733 316.484C687.771 317.721 681.705 321.973 671.543 325.181C670.732 325.452 669.882 325.684 668.993 325.955C668.993 325.955 668.954 325.955 668.954 325.993C667.988 337.126 665.438 352.86 663.12 368.052C662.502 371.995 661.922 375.899 661.42 379.649C659.99 389.622 658.947 398.745 658.831 405.278V405.356C658.792 408.371 661.304 415.87 661.497 417.571C661.613 418.615 661.729 419.736 661.767 420.935C662.038 425.612 661.922 431.179 661.536 437.093C659.874 462.916 653.035 495.967 650.64 497.359C645.81 500.142 637 497.359 632.518 496.702C630.663 496.431 629.195 494.846 629.272 492.991C631.475 450.12 625.177 390.434 620.501 353.749C620.385 352.782 620.269 351.855 620.153 350.927C619.574 346.597 619.226 342.577 618.994 338.905C618.762 335.696 618.685 332.797 618.647 330.284C618.647 329.511 618.647 328.738 618.608 328.042C618.608 325.761 620.424 310.724 620.501 241.837C620.501 240.252 621.815 238.938 623.399 238.938H665.515C669.573 238.938 672.857 242.262 672.818 246.321C672.741 251.579 672.934 258.924 674.093 265.92C675.639 275.469 678.962 284.437 685.839 286.563C685.878 286.641 686.071 287.066 686.342 287.762C686.419 289.501 686.496 291.241 686.574 293.058C686.574 293.406 686.612 293.792 686.612 294.14C686.612 294.372 686.612 294.565 686.651 294.797C686.651 295.145 686.69 295.532 686.69 295.88C686.728 296.498 686.728 297.078 686.767 297.696C686.805 298.16 686.805 298.663 686.844 299.127C686.883 300.054 686.96 301.021 686.999 301.949C686.999 302.258 687.037 302.567 687.037 302.876C687.115 304.113 687.192 305.35 687.308 306.626C687.346 307.013 687.346 307.399 687.385 307.786C687.385 307.979 687.424 308.172 687.424 308.366C687.462 308.868 687.501 309.371 687.54 309.835C687.578 310.376 687.617 310.878 687.655 311.42C687.926 313.391 687.656 315.131 687.733 316.484Z" fill="#2B478B"/>
<path d="M661.574 437.093C659.913 462.916 653.074 495.967 650.678 497.359C645.848 500.142 637.038 497.359 632.556 496.702C630.702 496.431 629.233 494.846 629.311 492.991C631.513 450.12 625.215 390.434 620.54 353.749C620.424 352.782 620.308 351.855 620.192 350.927C619.612 346.597 619.265 342.577 619.033 338.905C621.274 324.37 633.87 323.597 645.269 353.672C643.839 363.645 661.96 431.14 661.574 437.093Z" fill="#233862"/>
<path d="M688.196 404.042C688.544 407.018 692.022 414.131 692.447 415.832C698.204 439.065 695.035 494.151 692.176 496.354C687.733 499.756 678.652 498.133 674.132 498.094C672.277 498.055 670.577 496.702 670.422 494.847C666.868 450.971 652.146 390.705 642.718 355.218C637.966 337.359 637.27 324.215 637.27 324.215C637.27 324.215 681.473 297.117 686.264 311.922C690.515 324.988 685.53 381.118 688.196 404.042Z" fill="#2B478B"/>
<path d="M643.182 153.236C643.491 152.888 643.8 152.579 644.148 152.231C645.578 150.878 647.316 149.679 649.403 148.79C657.092 145.582 663.506 148.558 667.486 151.574C667.872 151.883 668.259 152.153 668.606 152.463C670.77 154.318 672.007 155.942 672.007 155.942C672.007 155.942 675.755 161.045 675.639 171.83L637.077 172.255C637.039 172.294 636.498 160.658 643.182 153.236Z" fill="#FFA412"/>
<path d="M664.781 171.984L662.656 172.023C662.617 171.404 662.733 157.411 667.95 151.96C668.336 152.269 668.259 152.192 668.606 152.501C663.661 157.295 664.781 171.83 664.781 171.984Z" fill="#E27F2B"/>
<path d="M648.051 172.178C647.626 163.596 644.341 154.589 643.453 153.004C643.762 152.656 643.839 152.579 644.148 152.27C644.766 153.313 649.789 162.668 650.33 172.178L675.639 171.907C675.639 171.907 662.811 174.768 655.083 174.884C647.355 174.961 637.077 172.332 637.077 172.332L648.051 172.178Z" fill="#E27F2B"/>
<path d="M674.171 210.525C674.171 210.525 661.149 225.718 660.376 238.977L667.022 239.325C667.022 239.325 668.684 224.558 678.498 211.453C678.498 211.453 676.953 211.067 676.45 210.989C675.755 210.796 674.171 210.525 674.171 210.525Z" fill="#2B478B"/>
<path d="M641.675 210.293C632.325 224.442 631.359 239.209 631.359 239.209L624.674 239.093C625.215 228.694 631.784 217.213 635.377 211.801C635.338 211.801 639.975 210.641 641.675 210.293Z" fill="#2B478B"/>
<path d="M656.242 356.03H661.613C664.124 354.909 677.571 349.072 690.553 348.994C699.904 348.956 710.53 355.914 711.187 355.991C712.809 356.184 705.777 356.262 705.777 356.262C705.777 356.262 695.229 351.584 690.476 351.468C685.955 351.352 675.948 354.638 671.93 356.03H702.068C704.579 356.03 706.666 358.079 706.666 360.63V395.035C706.666 397.547 704.618 399.635 702.068 399.635H656.204C653.692 399.635 651.605 397.586 651.605 395.035V360.63C651.644 358.079 653.692 356.03 656.242 356.03Z" fill="#FFA412"/>
<path d="M671.118 356.03H716.982C719.494 356.03 721.58 358.079 721.58 360.63V395.035C721.58 397.547 719.532 399.635 716.982 399.635H671.118C668.607 399.635 666.52 397.586 666.52 395.035V360.63C666.52 358.079 668.607 356.03 671.118 356.03Z" fill="#E27F2B"/>
<path d="M684.603 292.014C684.255 307.554 686.226 338.518 686.226 338.518H695.383C699.711 316.716 701.256 302.722 701.256 295.068C701.256 293.56 701.256 292.169 701.217 290.855C701.179 284.321 700.986 280.533 700.986 280.533C702.724 240.987 694.803 219.842 692.331 216.904C689.858 214.005 678.498 211.376 678.498 211.376C678.498 211.376 674.75 222.316 673.204 231.091C671.659 239.866 685.221 276.822 684.68 289.463C684.641 290.275 684.603 291.125 684.603 292.014Z" fill="#FFA412"/>
<path d="M686.187 338.557C686.187 338.557 684.255 307.593 684.564 292.052C691.906 289.694 697.817 290.197 701.179 290.931C701.179 292.246 701.218 293.637 701.218 295.145C701.218 302.799 699.672 316.793 695.344 338.595C697.238 346.636 697.122 355.295 693.799 356.803C690.476 358.349 679.541 352.589 679.657 350.038C679.812 347.448 686.187 338.557 686.187 338.557Z" fill="#D9935C"/>
<path d="M560.727 302.722C561.615 299.436 562.272 297.619 564.552 296.034C567.836 293.715 571.739 294.333 574.637 294.874C576.839 295.261 579.196 294.527 580.162 294.14C585.301 290.7 598.207 283.664 604.621 280.494C608.987 283.045 614.396 288.071 616.908 297.89C607.016 302.258 585.378 302.181 581.283 301.214C581.283 301.214 577.457 303.997 574.56 304.229C573.478 304.307 572.087 303.997 570.773 303.572C568.725 302.876 566.561 303.572 565.093 305.389C563.702 307.129 561.847 308.095 561.075 308.095C559.877 308.095 560.186 304.809 560.727 302.722Z" fill="#D9935C"/>
<path d="M443.11 272.84C446.742 283.973 466.564 303.224 469.307 305.119C469.307 305.119 473.906 297.426 472.978 293.135C472.244 289.617 464.516 277.092 461.889 270.946C461.734 270.637 461.618 270.327 461.502 270.057C461.155 269.129 460.962 268.395 461 267.931C461.116 266.578 465.328 263.331 470.235 259.465C476.572 254.439 484.068 248.409 485.304 244.234C487.468 236.851 494.925 207.626 494.925 207.626C494.925 207.626 476.417 211.646 471.201 216.246C465.985 220.847 443.535 259.272 442.608 269.129C442.454 270.25 442.647 271.487 443.11 272.84Z" fill="#FFA412"/>
<path d="M443.11 272.84C446.742 283.973 466.564 303.224 469.308 305.119C469.308 305.119 473.906 297.426 472.978 293.135C472.167 289.424 463.705 275.778 461.502 270.018C458.18 269.477 450.452 268.781 443.11 272.84Z" fill="#D9935C"/>
<path d="M494.848 205.113V207.394C494.848 207.394 494.229 214.507 502.962 215.512C511.694 216.556 518.263 213.386 518.031 207.897C517.258 203.644 516.408 200.127 516.369 196.609C516.331 195.295 516.447 193.903 516.679 192.357L499.755 192.009L494.77 192.821L494.848 205.113Z" fill="#D9935C"/>
<path d="M494.77 192.821L494.848 205.075C496.664 205.925 498.673 206.428 500.952 206.428C508.719 206.428 513.742 200.707 516.369 196.57C516.331 195.256 516.447 193.864 516.678 192.318L499.755 191.97L494.77 192.821Z" fill="#CB7D45"/>
<path d="M509.762 505.98C509.762 505.98 510.574 499.563 512.467 495.774C514.36 491.986 526.493 494.383 526.493 494.383C526.493 494.383 528.927 496.47 529.429 506.134L509.762 505.98Z" fill="#233862"/>
<path d="M468.535 505.941C471.394 504.201 469.771 491.251 469.771 491.251C469.771 491.251 456.518 480.659 454.702 488.777C452.886 496.895 442.106 500.529 435.962 501.534C431.712 502.23 430.437 504.549 430.012 505.941H468.535Z" fill="#233862"/>
<path d="M495.968 410.265C495.427 413.242 495.079 415.677 495.002 417.417C493.766 441.461 474.756 496.431 471.355 497.707C466.1 499.679 457.832 495.465 453.504 494.073C451.727 493.493 450.49 491.677 450.915 489.86C460.305 446.603 463.782 384.288 465.057 347.409C465.675 328.815 468.882 315.981 468.882 315.981C468.882 315.981 515.21 303.611 515.481 319.267C515.713 333.106 500.103 387.419 495.968 410.265Z" fill="#2B478B"/>
<path d="M495.968 410.265L465.019 347.409C465.637 328.815 468.844 315.981 468.844 315.981C468.844 315.981 515.172 303.611 515.442 319.267C515.713 333.106 500.103 387.419 495.968 410.265Z" fill="#233862"/>
<path d="M485.652 319.345L510.149 496.973C510.149 496.973 520.89 499.563 529.275 497.475C529.275 497.475 536.462 402.998 535.843 380.19C535.264 357.344 540.982 319.074 534.53 314.86C528.077 310.608 485.652 319.345 485.652 319.345Z" fill="#2B478B"/>
<path d="M467.53 319.653C467.53 319.653 480.049 326.96 498.171 326.766C505.242 326.689 511.385 326.148 516.601 325.375C531.13 323.21 538.471 319.151 538.432 317.643C538.394 316.29 538.278 311.729 538.123 309.796C535.805 283.123 537.003 262.403 533.912 246.824C533.873 246.631 533.834 246.437 533.796 246.283C529.7 226.49 523.247 215.087 520.04 210.448C518.881 208.747 518.147 207.935 518.108 207.935C518.108 211.646 510.226 214.816 503.812 214.391C498.402 214.043 494.886 209.945 494.886 207.703C494.461 207.703 470.505 224.326 470.505 239.788C470.389 309.061 466.178 319.692 467.53 319.653Z" fill="#FFA412"/>
<path d="M516.563 325.143C516.563 325.22 516.601 325.298 516.601 325.375C531.13 323.21 538.471 319.151 538.432 317.644C538.394 316.291 538.278 311.729 538.123 309.796C535.805 283.123 537.003 262.403 533.912 246.824C526.222 257.03 510.535 283.742 516.563 325.143Z" fill="#E27F2B"/>
<path d="M514.244 302.258C534.414 299.049 547.744 290.583 553.231 286.486C555.086 285.094 556.052 284.205 556.052 284.205C566.368 262.48 547.706 224.364 544.267 217.909C540.596 210.95 518.07 207.896 518.07 207.896C518.07 207.896 521.663 218.488 523.054 232.289C524.445 246.089 539.437 272.956 538.819 275.237C538.664 275.817 536.848 277.015 534.221 278.523C526.377 282.968 511.269 290.158 510.342 291.859C509.105 294.063 514.244 302.258 514.244 302.258Z" fill="#D9935C"/>
<path d="M523.054 232.289C524.445 246.09 539.437 272.956 538.819 275.237C538.664 275.817 536.848 277.015 534.221 278.523C534.375 278.523 534.568 278.523 534.723 278.523C546.508 278.02 551.84 284.515 553.192 286.563C555.047 285.172 556.013 284.283 556.013 284.283C566.33 262.558 547.667 224.442 544.228 217.986C540.557 211.028 518.031 207.974 518.031 207.974C518.031 207.974 521.663 218.489 523.054 232.289Z" fill="#FFA412"/>
<path d="M493.805 198.812C493.805 198.812 515.481 203.181 517.993 189.651C520.504 176.121 524.986 167.539 511.269 164.176C497.553 160.813 493.882 165.49 491.95 169.781C490.018 174.072 488.241 197.305 493.805 198.812Z" fill="#D9935C"/>
<path d="M517.567 193.555C517.567 193.555 521.74 184.625 525.256 180.644C528.734 176.662 526.84 156.792 511.771 157.45C496.664 158.068 491.293 168.892 491.138 170.941C490.984 172.99 503.194 171.405 506.555 174.111C509.878 176.817 506.71 181.262 510.535 182.847C514.36 184.432 517.374 184.432 516.717 187.95C516.022 191.429 517.567 193.555 517.567 193.555Z" fill="#233862"/>
<path d="M512.892 148.21C517.22 149.293 520.465 151.032 522.861 153.12C523.093 153.313 523.325 153.545 523.556 153.738C532.521 162.281 528.927 175.85 528.927 175.85C528.927 175.85 527.729 179.29 526.918 180.605C526.107 181.919 514.206 180.411 513.588 177.821C512.969 175.231 510.612 172.603 510.612 172.603C510.612 172.603 498.093 171.752 497.243 171.675C494.423 171.482 486.347 168.66 486.347 168.66C486.463 167.886 491.022 142.682 512.892 148.21Z" fill="#FFA412"/>
<path d="M478.967 166.031C480.474 165.645 483.024 165.258 487.236 165.103C487.236 165.103 490.791 168.041 497.823 170.283C501.146 166.108 510.574 156.058 522.861 153.12C522.899 153.12 522.938 153.12 522.977 153.081C523.247 153.429 523.402 153.506 523.556 153.738C523.595 153.816 523.672 153.893 523.749 153.97C513.742 155.71 504.237 166.959 500.991 171.172C503.773 171.868 507.019 172.409 510.651 172.641C510.651 172.641 488.743 173.067 478.774 167.771C478.001 167.384 478.117 166.224 478.967 166.031Z" fill="#E27F2B"/>
<path d="M456.672 265.496C457.059 267.776 458.334 270.212 461.85 270.985C461.696 270.676 461.58 270.366 461.464 270.096C461.116 269.168 460.923 268.434 460.961 267.97C461.077 266.617 465.289 263.369 470.196 259.504C470.582 257.3 471.587 250.806 470.196 245.665C468.496 239.364 456.209 262.867 456.672 265.496Z" fill="#E27F2B"/>
<path d="M536.578 276.938C536.578 276.938 551.647 275.701 556.554 284.476C556.554 284.476 556.129 287.414 553.231 286.525C553.231 286.525 540.48 277.827 534.259 278.484C534.221 278.484 535.187 276.938 536.578 276.938Z" fill="#E27F2B"/>
<path d="M461.85 270.946C461.85 270.946 454.045 271.255 444.192 275.546C444.192 275.546 442.028 273.42 442.878 272.183C443.767 270.946 457.6 266.539 461.85 270.946Z" fill="#E27F2B"/>
<path d="M474.678 269.786L472.823 271.526L476.108 274.541L476.378 274.27L490.327 288.844L491.177 288.032L477.228 273.459L477.499 273.227L474.678 269.786Z" fill="#2B478B"/>
<path d="M504.469 302.722C503.696 303.456 502.459 303.418 501.725 302.683L490.404 290.854C489.67 290.081 489.708 288.844 490.443 288.11C491.215 287.375 492.452 287.414 493.186 288.148L504.507 299.977C505.241 300.75 505.241 301.987 504.469 302.722Z" fill="#233862"/>
<path d="M510.342 291.821C510.342 291.821 499.059 287.298 496.316 289.153C493.534 291.009 488.936 293.754 488.936 295.609C488.936 297.465 494.77 302.374 499.678 303.92C504.585 305.467 514.206 302.297 514.206 302.297L510.342 291.821Z" fill="#D9935C"/>
<path d="M913.809 510H1.35236C0.618221 510 0 509.381 0 508.647V507.294C0 506.559 0.618221 505.941 1.35236 505.941H913.809C914.543 505.941 915.161 506.559 915.161 507.294V508.647C915.122 509.381 914.543 510 913.809 510Z" fill="#2B478B"/>
</svg>
