<svg width="48" height="48" viewBox="0 0 48 48" fill="none" xmlns="http://www.w3.org/2000/svg">
<path fill-rule="evenodd" clip-rule="evenodd" d="M33.8787 6C36.5607 6 39.1407 7.06 41.0387 8.962C42.9387 10.86 44.0007 13.42 44.0007 16.1V31.9C44.0007 37.48 39.4607 42 33.8787 42H14.1207C8.53873 42 4.00073 37.48 4.00073 31.9V16.1C4.00073 10.52 8.51873 6 14.1207 6H33.8787ZM37.0607 19.08L37.2207 18.92C37.6987 18.34 37.6987 17.5 37.1987 16.92C36.9207 16.622 36.5387 16.44 36.1407 16.4C35.7207 16.378 35.3207 16.52 35.0187 16.8L26.0007 24C24.8407 24.962 23.1787 24.962 22.0007 24L13.0007 16.8C12.3787 16.34 11.5187 16.4 11.0007 16.94C10.4607 17.48 10.4007 18.34 10.8587 18.94L11.1207 19.2L20.2207 26.3C21.3407 27.18 22.6987 27.66 24.1207 27.66C25.5387 27.66 26.9207 27.18 28.0387 26.3L37.0607 19.08Z" fill="#2C2C30"/>
</svg>
