<svg width="44" height="36" viewBox="0 0 44 36" fill="none" xmlns="http://www.w3.org/2000/svg">
<g opacity="0.3" clip-path="url(#clip0_92_856)">
<path d="M26.0679 15.7299V0.16235H44V12.4867C44 19.1353 43.0038 24.0002 41.0113 27.0813C38.3547 31.1353 34.3698 34.0542 28.7245 36.1624L24.5736 30.9732C28.0604 29.6759 30.5509 27.8921 32.0453 25.6218C33.7057 23.3515 34.5358 20.1083 34.7019 15.7299H26.0679Z" fill="white"/>
<path d="M1.4942 15.7299V0.16235H19.4263V12.4867C19.4263 19.1353 18.43 24.0002 16.4376 27.0813C13.781 31.1353 9.79608 34.0542 4.1508 36.1624L-0.000143051 30.9732C3.48665 29.838 5.97721 28.0542 7.47155 25.784C9.13193 23.5137 9.96212 20.2705 10.1282 15.8921H1.4942V15.7299Z" fill="white"/>
</g>
<defs>
<clipPath id="clip0_92_856">
<rect width="44" height="36" fill="white" transform="translate(44 36) rotate(-180)"/>
</clipPath>
</defs>
</svg>
