<svg width="28" height="28" viewBox="0 0 28 28" fill="none" xmlns="http://www.w3.org/2000/svg">
<path d="M17.6592 9.51014C16.6414 8.52749 15.3467 8.02714 13.9048 8.02714C11.3467 8.02714 9.18156 9.77158 8.40924 12.1155C8.21281 12.7105 8.1012 13.3461 8.1012 13.9997C8.1012 14.6533 8.2128 15.2888 8.40922 15.8838C9.18154 18.2278 11.3467 19.9722 13.9048 19.9722C15.2262 19.9722 16.3512 19.6206 17.2307 19.0256C18.2708 18.3224 18.9628 17.2722 19.1905 16.0326H13.9048V12.1967H23.1548C23.2708 12.8458 23.3333 13.5219 23.3333 14.2251C23.3333 17.2452 22.2619 19.7874 20.4048 21.5138C18.7798 23.0284 16.5565 23.9163 13.9048 23.9163C10.0655 23.9163 6.74408 21.6941 5.12801 18.4532C4.46283 17.1144 4.08334 15.5999 4.08334 13.9997C4.08334 12.3995 4.46281 10.885 5.12799 9.54621C6.74406 6.30526 10.0655 4.08301 13.9048 4.08301C16.5521 4.08301 18.7753 5.06566 20.4762 6.66585L17.6592 9.51014Z" fill="#B2B2B2"/>
</svg>
