<svg width="28" height="28" viewBox="0 0 28 28" fill="none" xmlns="http://www.w3.org/2000/svg">
<path fill-rule="evenodd" clip-rule="evenodd" d="M23.52 14.2257C23.52 13.5225 23.4569 12.8464 23.3397 12.1973H14V16.0332H19.337C19.1071 17.2728 18.4084 18.3231 17.3581 19.0263V21.5144H20.563C22.4382 19.788 23.52 17.2458 23.52 14.2257Z" fill="#4285F4"/>
<path fill-rule="evenodd" clip-rule="evenodd" d="M14.0001 23.9168C16.6776 23.9168 18.9224 23.0288 20.5631 21.5142L17.3582 19.0261C16.4702 19.6211 15.3343 19.9727 14.0001 19.9727C11.4172 19.9727 9.23107 18.2282 8.45126 15.8843H5.13818V18.4536C6.76993 21.6945 10.1236 23.9168 14.0001 23.9168Z" fill="#34A853"/>
<path fill-rule="evenodd" clip-rule="evenodd" d="M8.45122 15.8845C8.25289 15.2895 8.1402 14.654 8.1402 14.0004C8.1402 13.3468 8.25289 12.7112 8.45122 12.1162V9.54688H5.13815C4.46652 10.8856 4.08337 12.4002 4.08337 14.0004C4.08337 15.6006 4.46652 17.1151 5.13815 18.4539L8.45122 15.8845Z" fill="#FBBC05"/>
<path fill-rule="evenodd" clip-rule="evenodd" d="M14.0001 8.02763C15.456 8.02763 16.7632 8.52797 17.791 9.51063L20.6353 6.66634C18.9179 5.06615 16.6731 4.0835 14.0001 4.0835C10.1236 4.0835 6.76993 6.30573 5.13818 9.54669L8.45126 12.116C9.23107 9.77207 11.4172 8.02763 14.0001 8.02763Z" fill="#EA4335"/>
</svg>
