<svg width="32" height="32" viewBox="0 0 32 32" fill="none" xmlns="http://www.w3.org/2000/svg">
<path fill-rule="evenodd" clip-rule="evenodd" d="M10.1833 4.52699C6.74735 4.52699 4.52735 6.88299 4.52735 10.5177V21.4697C4.52735 22.4897 4.71668 23.4003 5.04068 24.1883C5.05468 24.1716 5.36035 23.7991 5.75892 23.3134C6.53686 22.3654 7.66875 20.986 7.67668 20.979C8.59935 19.9257 10.3313 18.355 12.6047 19.3057C13.1028 19.5122 13.5456 19.7952 13.9532 20.0556C13.9929 20.081 14.0323 20.1061 14.0713 20.131C14.8353 20.6417 15.2847 20.8817 15.7513 20.8417C15.9447 20.815 16.126 20.7577 16.298 20.651C16.9469 20.251 18.629 17.8675 19.1327 17.1538C19.2066 17.0491 19.2551 16.9803 19.2713 16.959C20.7247 15.0657 22.9647 14.559 24.8313 15.679C25.082 15.8283 26.878 17.083 27.4727 17.587V10.5177C27.4727 6.88299 25.2527 4.52699 21.8047 4.52699H10.1833ZM21.8047 2.66699C26.3073 2.66699 29.3327 5.81633 29.3327 10.5177V21.4697C29.3327 21.5879 29.3203 21.6988 29.3079 21.8096C29.2991 21.8875 29.2904 21.9653 29.286 22.0457C29.2832 22.0942 29.2818 22.1428 29.2804 22.1914C29.2785 22.2561 29.2767 22.3209 29.2713 22.3857C29.2687 22.411 29.2637 22.4353 29.2587 22.4597C29.2537 22.484 29.2487 22.5083 29.246 22.5337C29.202 22.9523 29.134 23.3523 29.0393 23.7403C29.017 23.8373 28.9911 23.9308 28.965 24.0251L28.9593 24.0457C28.8527 24.4217 28.7273 24.7803 28.5767 25.123C28.5503 25.1806 28.5224 25.2367 28.4946 25.2929C28.476 25.3303 28.4575 25.3678 28.4393 25.4057C28.2767 25.7323 28.1007 26.0457 27.8967 26.3363C27.8589 26.3901 27.8188 26.4406 27.7785 26.4911C27.7519 26.5244 27.7253 26.5579 27.6993 26.5923C27.4873 26.867 27.266 27.1297 27.0153 27.3683C26.9653 27.4159 26.9112 27.4595 26.8571 27.503C26.8233 27.5302 26.7895 27.5575 26.7567 27.5857C26.4993 27.807 26.2367 28.019 25.9473 28.2003C25.8842 28.24 25.8171 28.2733 25.7503 28.3064C25.707 28.3279 25.6639 28.3493 25.622 28.3723C25.3273 28.535 25.03 28.6937 24.706 28.8163C24.6281 28.8459 24.5451 28.8674 24.4619 28.8888C24.4028 28.9041 24.3436 28.9194 24.286 28.9377C24.2572 28.9466 24.2284 28.9555 24.1996 28.9645C23.9102 29.0545 23.6217 29.1443 23.31 29.1977C23.1295 29.2293 22.9379 29.2415 22.7461 29.2536C22.6631 29.2589 22.5802 29.2641 22.498 29.271C22.4097 29.2776 22.3231 29.2882 22.2364 29.2989C22.0954 29.3163 21.9541 29.3337 21.8047 29.3337H10.1833C9.68202 29.3337 9.20335 29.283 8.74068 29.207C8.72335 29.2043 8.70735 29.2017 8.69135 29.199C6.88735 28.8883 5.39002 28.0177 4.34068 26.7043C4.33339 26.7043 4.33053 26.6994 4.32672 26.6929C4.32426 26.6886 4.32139 26.6837 4.31668 26.679C3.26202 25.351 2.66602 23.5657 2.66602 21.4697V10.5177C2.66602 5.81633 5.69402 2.66699 10.1833 2.66699H21.8047ZM14.6668 11.3531C14.6668 13.1597 13.1552 14.6665 11.3399 14.6665C9.74433 14.6665 8.38387 13.5007 8.07896 11.9913C8.02857 11.7648 8.00015 11.5319 8.00015 11.2913C8.00015 9.47184 9.47819 7.99979 11.3051 7.99979C12.2353 7.99979 13.0777 8.39096 13.681 9.01504C14.287 9.61724 14.6668 10.4472 14.6668 11.3531Z" fill="#2C2C30"/>
</svg>
