<svg width="18" height="20" viewBox="0 0 18 20" fill="none" xmlns="http://www.w3.org/2000/svg">
<path fill-rule="evenodd" clip-rule="evenodd" d="M9 0.25C9.41421 0.25 9.75 0.585786 9.75 1L9.75 7C9.75 7.41421 9.41421 7.75 9 7.75C8.58579 7.75 8.25 7.41421 8.25 7L8.25 1C8.25 0.585786 8.58579 0.25 9 0.25Z" fill="#797877"/>
<path fill-rule="evenodd" clip-rule="evenodd" d="M5.64952 3.69683C5.85663 4.05555 5.73373 4.51424 5.37501 4.72136C4.30514 5.33906 3.40381 6.22414 2.76544 7.29971C1.88775 8.7785 1.56428 10.5211 1.85278 12.2164C2.14127 13.9116 3.02296 15.4491 4.34039 16.5544C5.65781 17.6596 7.3252 18.2605 9.0448 18.2499C10.7644 18.2393 12.4242 17.6178 13.7279 16.4964C15.0316 15.375 15.8942 13.8267 16.1617 12.128C16.4293 10.4293 16.0843 8.69081 15.1884 7.22298C14.5526 6.18118 13.6686 5.32386 12.625 4.72136C12.2663 4.51424 12.1434 4.05555 12.3505 3.69683C12.5576 3.33812 13.0163 3.21522 13.375 3.42233C14.6344 4.14945 15.7013 5.18414 16.4688 6.44152C17.55 8.21303 17.9664 10.3112 17.6435 12.3613C17.3206 14.4115 16.2795 16.2801 14.7061 17.6335C13.1327 18.987 11.1294 19.7371 9.05406 19.7499C6.97869 19.7627 4.96632 19.0374 3.37632 17.7035C1.78632 16.3696 0.722222 14.514 0.374036 12.468C0.0258491 10.422 0.41625 8.31886 1.47552 6.53413C2.24599 5.23599 3.33383 4.1678 4.62499 3.42233C4.98371 3.21522 5.4424 3.33812 5.64952 3.69683Z" fill="#797877"/>
</svg>
