<svg width="48" height="48" viewBox="0 0 48 48" fill="none" xmlns="http://www.w3.org/2000/svg">
<path fill-rule="evenodd" clip-rule="evenodd" d="M39.5434 16.1775C39.5569 16.5273 39.5614 16.8769 39.5614 17.2267C39.5614 27.8311 32.1018 40.0732 18.4606 40.0732C14.2703 40.0732 10.3739 38.7377 7.09094 36.4642C7.67126 36.5278 8.26062 36.5756 8.85903 36.5756C12.3334 36.5756 15.5334 35.2876 18.0717 33.1253C14.8265 33.0776 12.0862 30.7405 11.1411 27.5608C11.5948 27.6562 12.062 27.704 12.5399 27.704C13.2136 27.704 13.8678 27.6087 14.4948 27.418C11.0989 26.6866 8.54099 23.4434 8.54099 19.5482C8.54099 19.5005 8.54099 19.4845 8.54099 19.4527C9.54184 20.041 10.6874 20.4065 11.9038 20.4542C9.91111 19.0074 8.60124 16.5431 8.60124 13.7609C8.60124 12.2982 8.96601 10.915 9.60813 9.72256C13.2649 14.5875 18.7319 17.7832 24.8953 18.1171C24.7687 17.5288 24.7039 16.909 24.7039 16.2889C24.7039 11.8532 28.0245 8.26001 32.1213 8.26001C34.2542 8.26001 36.1805 9.22997 37.5326 10.788C39.2253 10.4383 40.811 9.77057 42.246 8.84845C41.6898 10.7245 40.5156 12.2981 38.9811 13.2838C40.4824 13.0931 41.9144 12.6641 43.2423 12.0282C42.246 13.6339 40.9919 15.0487 39.5434 16.1775Z" fill="#1EA1F2"/>
</svg>
