<svg width="48" height="48" viewBox="0 0 48 48" fill="none" xmlns="http://www.w3.org/2000/svg">
<path fill-rule="evenodd" clip-rule="evenodd" d="M39.5435 16.1778C39.5571 16.5275 39.5616 16.8772 39.5616 17.2269C39.5616 27.8313 32.1019 40.0735 18.4607 40.0735C14.2704 40.0735 10.374 38.738 7.09106 36.4645C7.67138 36.528 8.26074 36.5759 8.85915 36.5759C12.3335 36.5759 15.5335 35.2878 18.0718 33.1256C14.8266 33.0779 12.0863 30.7408 11.1412 27.5611C11.5949 27.6564 12.0622 27.7043 12.54 27.7043C13.2138 27.7043 13.8679 27.609 14.495 27.4182C11.099 26.6869 8.54111 23.4436 8.54111 19.5485C8.54111 19.5008 8.54111 19.4848 8.54111 19.453C9.54196 20.0412 10.6875 20.4067 11.9039 20.4544C9.91123 19.0076 8.60137 16.5434 8.60137 13.7611C8.60137 12.2985 8.96613 10.9152 9.60825 9.72281C13.265 14.5878 18.7321 17.7835 24.8955 18.1173C24.7688 17.5291 24.704 16.9092 24.704 16.2892C24.704 11.8534 28.0246 8.26025 32.1215 8.26025C34.2543 8.26025 36.1807 9.23021 37.5327 10.7883C39.2254 10.4385 40.8111 9.77081 42.2461 8.84869C41.6899 10.7247 40.5157 12.2984 38.9812 13.2841C40.4825 13.0933 41.9145 12.6644 43.2425 12.0284C42.2461 13.6342 40.992 15.0489 39.5435 16.1778Z" fill="white"/>
</svg>
